<mxfile host="app.diagrams.net" modified="2023-04-06T15:09:19.347Z" agent="Mozilla/5.0 (Windows NT 10.0; Win64; x64) AppleWebKit/537.36 (KHTML, like Gecko) Chrome/111.0.0.0 Safari/537.36 Edg/111.0.1661.62" etag="ijCA55VKAIH_6pFqKaGj" version="21.1.4" type="google">
  <diagram name="PÃ¡gina-1" id="Xd9yY2hYrN-TfIBn7hZ6">
    <mxGraphModel grid="1" page="1" gridSize="10" guides="1" tooltips="1" connect="1" arrows="1" fold="1" pageScale="1" pageWidth="1169" pageHeight="827" math="0" shadow="0">
      <root>
        <mxCell id="0" />
        <mxCell id="1" parent="0" />
        <mxCell id="dkPIhI43n5dkKWWPKZW5-111" value="" style="html=1;whiteSpace=wrap;strokeWidth=5;" vertex="1" parent="1">
          <mxGeometry x="15" y="77" width="1190" height="740" as="geometry" />
        </mxCell>
        <mxCell id="dkPIhI43n5dkKWWPKZW5-5" value="Anima" style="swimlane;fontStyle=0;childLayout=stackLayout;horizontal=1;startSize=26;fillColor=none;horizontalStack=0;resizeParent=1;resizeParentMax=0;resizeLast=0;collapsible=1;marginBottom=0;html=1;" vertex="1" parent="1">
          <mxGeometry x="214" y="200" width="200" height="200" as="geometry" />
        </mxCell>
        <mxCell id="dkPIhI43n5dkKWWPKZW5-20" value="&lt;span style=&quot;color: rgb(0, 0, 0); font-family: Helvetica; font-size: 12px; font-style: normal; font-variant-ligatures: normal; font-variant-caps: normal; font-weight: 400; letter-spacing: normal; orphans: 2; text-align: left; text-indent: 0px; text-transform: none; widows: 2; word-spacing: 0px; -webkit-text-stroke-width: 0px; background-color: rgb(251, 251, 251); text-decoration-thickness: initial; text-decoration-style: initial; text-decoration-color: initial; float: none; display: inline !important;&quot;&gt;-int patas&lt;/span&gt;" style="text;whiteSpace=wrap;html=1;" vertex="1" parent="dkPIhI43n5dkKWWPKZW5-5">
          <mxGeometry y="26" width="200" height="14" as="geometry" />
        </mxCell>
        <mxCell id="dkPIhI43n5dkKWWPKZW5-15" value="" style="shape=table;startSize=10;container=1;collapsible=1;childLayout=tableLayout;fixedRows=1;rowLines=0;fontStyle=0;align=center;resizeLast=1;strokeColor=none;fillColor=none;collapsible=0;" vertex="1" parent="dkPIhI43n5dkKWWPKZW5-5">
          <mxGeometry y="40" width="200" height="30" as="geometry" />
        </mxCell>
        <mxCell id="dkPIhI43n5dkKWWPKZW5-16" value="" style="shape=tableRow;horizontal=0;startSize=0;swimlaneHead=0;swimlaneBody=0;fillColor=none;collapsible=0;dropTarget=0;points=[[0,0.5],[1,0.5]];portConstraint=eastwest;top=0;left=0;right=0;bottom=1;" vertex="1" parent="dkPIhI43n5dkKWWPKZW5-15">
          <mxGeometry y="10" width="200" height="20" as="geometry" />
        </mxCell>
        <mxCell id="dkPIhI43n5dkKWWPKZW5-17" value="" style="shape=partialRectangle;connectable=0;fillColor=none;top=0;left=0;bottom=0;right=0;fontStyle=1;overflow=hidden;whiteSpace=wrap;html=1;" vertex="1" parent="dkPIhI43n5dkKWWPKZW5-16">
          <mxGeometry width="30" height="20" as="geometry">
            <mxRectangle width="30" height="20" as="alternateBounds" />
          </mxGeometry>
        </mxCell>
        <mxCell id="dkPIhI43n5dkKWWPKZW5-18" value="" style="shape=partialRectangle;connectable=0;fillColor=none;top=0;left=0;bottom=0;right=0;align=left;spacingLeft=6;fontStyle=5;overflow=hidden;whiteSpace=wrap;html=1;" vertex="1" parent="dkPIhI43n5dkKWWPKZW5-16">
          <mxGeometry x="30" width="170" height="20" as="geometry">
            <mxRectangle width="170" height="20" as="alternateBounds" />
          </mxGeometry>
        </mxCell>
        <mxCell id="dkPIhI43n5dkKWWPKZW5-7" value="+getInt patas()&lt;br&gt;" style="text;strokeColor=none;fillColor=none;align=left;verticalAlign=top;spacingLeft=4;spacingRight=4;overflow=hidden;rotatable=0;points=[[0,0.5],[1,0.5]];portConstraint=eastwest;whiteSpace=wrap;html=1;" vertex="1" parent="dkPIhI43n5dkKWWPKZW5-5">
          <mxGeometry y="70" width="200" height="26" as="geometry" />
        </mxCell>
        <mxCell id="dkPIhI43n5dkKWWPKZW5-14" value="&lt;span style=&quot;color: rgb(0, 0, 0); font-family: Helvetica; font-size: 12px; font-style: normal; font-variant-ligatures: normal; font-variant-caps: normal; font-weight: 400; letter-spacing: normal; orphans: 2; text-align: left; text-indent: 0px; text-transform: none; widows: 2; word-spacing: 0px; -webkit-text-stroke-width: 0px; background-color: rgb(251, 251, 251); text-decoration-thickness: initial; text-decoration-style: initial; text-decoration-color: initial; float: none; display: inline !important;&quot;&gt;+setInit patas ( Int patas): void&lt;/span&gt;" style="text;whiteSpace=wrap;html=1;" vertex="1" parent="dkPIhI43n5dkKWWPKZW5-5">
          <mxGeometry y="96" width="200" height="32" as="geometry" />
        </mxCell>
        <mxCell id="dkPIhI43n5dkKWWPKZW5-19" value="+ abstract void comer ()" style="text;strokeColor=none;fillColor=none;align=left;verticalAlign=top;spacingLeft=4;spacingRight=4;overflow=hidden;rotatable=0;points=[[0,0.5],[1,0.5]];portConstraint=eastwest;whiteSpace=wrap;html=1;" vertex="1" parent="dkPIhI43n5dkKWWPKZW5-5">
          <mxGeometry y="128" width="200" height="42" as="geometry" />
        </mxCell>
        <mxCell id="dkPIhI43n5dkKWWPKZW5-8" value="+ abstract void caminar (Int patas)" style="text;strokeColor=none;fillColor=none;align=left;verticalAlign=top;spacingLeft=4;spacingRight=4;overflow=hidden;rotatable=0;points=[[0,0.5],[1,0.5]];portConstraint=eastwest;whiteSpace=wrap;html=1;" vertex="1" parent="dkPIhI43n5dkKWWPKZW5-5">
          <mxGeometry y="170" width="200" height="30" as="geometry" />
        </mxCell>
        <mxCell id="dkPIhI43n5dkKWWPKZW5-26" value="Es una clasee&amp;nbsp;&lt;br style=&quot;border-color: var(--border-color); font-size: 9px;&quot;&gt;&lt;span style=&quot;font-size: 9px;&quot;&gt;abstracta&lt;/span&gt;" style="whiteSpace=wrap;html=1;shape=mxgraph.basic.document" vertex="1" parent="1">
          <mxGeometry x="30" y="235" width="80" height="50" as="geometry" />
        </mxCell>
        <mxCell id="dkPIhI43n5dkKWWPKZW5-27" value="" style="html=1;shadow=0;dashed=0;align=center;verticalAlign=middle;shape=mxgraph.arrows2.twoWayArrow;dy=0.65;dx=22;" vertex="1" parent="1">
          <mxGeometry x="120" y="250" width="70" height="20" as="geometry" />
        </mxCell>
        <mxCell id="dkPIhI43n5dkKWWPKZW5-33" value="Lista de Animales" style="swimlane;fontStyle=1;align=center;verticalAlign=top;childLayout=stackLayout;horizontal=1;startSize=26;horizontalStack=0;resizeParent=1;resizeParentMax=0;resizeLast=0;collapsible=1;marginBottom=0;whiteSpace=wrap;html=1;" vertex="1" parent="1">
          <mxGeometry x="210" y="630" width="200" height="86" as="geometry" />
        </mxCell>
        <mxCell id="dkPIhI43n5dkKWWPKZW5-34" value="-Animal animaless[]" style="text;strokeColor=none;fillColor=none;align=left;verticalAlign=top;spacingLeft=4;spacingRight=4;overflow=hidden;rotatable=0;points=[[0,0.5],[1,0.5]];portConstraint=eastwest;whiteSpace=wrap;html=1;" vertex="1" parent="dkPIhI43n5dkKWWPKZW5-33">
          <mxGeometry y="26" width="200" height="26" as="geometry" />
        </mxCell>
        <mxCell id="dkPIhI43n5dkKWWPKZW5-35" value="" style="line;strokeWidth=1;fillColor=none;align=left;verticalAlign=middle;spacingTop=-1;spacingLeft=3;spacingRight=3;rotatable=0;labelPosition=right;points=[];portConstraint=eastwest;strokeColor=inherit;" vertex="1" parent="dkPIhI43n5dkKWWPKZW5-33">
          <mxGeometry y="52" width="200" height="8" as="geometry" />
        </mxCell>
        <mxCell id="dkPIhI43n5dkKWWPKZW5-36" value="+boolean buscar (Animal animal&lt;br&gt;" style="text;strokeColor=none;fillColor=none;align=left;verticalAlign=top;spacingLeft=4;spacingRight=4;overflow=hidden;rotatable=0;points=[[0,0.5],[1,0.5]];portConstraint=eastwest;whiteSpace=wrap;html=1;" vertex="1" parent="dkPIhI43n5dkKWWPKZW5-33">
          <mxGeometry y="60" width="200" height="26" as="geometry" />
        </mxCell>
        <mxCell id="dkPIhI43n5dkKWWPKZW5-54" value="&lt;b&gt;Oso&lt;/b&gt;" style="swimlane;fontStyle=0;childLayout=stackLayout;horizontal=1;startSize=26;fillColor=none;horizontalStack=0;resizeParent=1;resizeParentMax=0;resizeLast=0;collapsible=1;marginBottom=0;whiteSpace=wrap;html=1;" vertex="1" parent="1">
          <mxGeometry x="60" y="530" width="190" height="78" as="geometry" />
        </mxCell>
        <mxCell id="dkPIhI43n5dkKWWPKZW5-56" value="+void comer()" style="text;strokeColor=none;fillColor=none;align=left;verticalAlign=top;spacingLeft=4;spacingRight=4;overflow=hidden;rotatable=0;points=[[0,0.5],[1,0.5]];portConstraint=eastwest;whiteSpace=wrap;html=1;" vertex="1" parent="dkPIhI43n5dkKWWPKZW5-54">
          <mxGeometry y="26" width="190" height="26" as="geometry" />
        </mxCell>
        <mxCell id="dkPIhI43n5dkKWWPKZW5-57" value="+ void caminar()" style="text;strokeColor=none;fillColor=none;align=left;verticalAlign=top;spacingLeft=4;spacingRight=4;overflow=hidden;rotatable=0;points=[[0,0.5],[1,0.5]];portConstraint=eastwest;whiteSpace=wrap;html=1;" vertex="1" parent="dkPIhI43n5dkKWWPKZW5-54">
          <mxGeometry y="52" width="190" height="26" as="geometry" />
        </mxCell>
        <mxCell id="dkPIhI43n5dkKWWPKZW5-64" value="" style="endArrow=block;endSize=16;endFill=0;html=1;rounded=0;" edge="1" parent="1">
          <mxGeometry width="160" relative="1" as="geometry">
            <mxPoint x="230" y="530" as="sourcePoint" />
            <mxPoint x="230" y="410" as="targetPoint" />
            <Array as="points">
              <mxPoint x="230" y="450" />
            </Array>
          </mxGeometry>
        </mxCell>
        <mxCell id="dkPIhI43n5dkKWWPKZW5-68" value="" style="endArrow=diamondThin;endFill=0;endSize=24;html=1;rounded=0;" edge="1" parent="1">
          <mxGeometry width="160" relative="1" as="geometry">
            <mxPoint x="320" y="620" as="sourcePoint" />
            <mxPoint x="320" y="410" as="targetPoint" />
          </mxGeometry>
        </mxCell>
        <mxCell id="dkPIhI43n5dkKWWPKZW5-80" value="" style="group" vertex="1" connectable="0" parent="1">
          <mxGeometry x="560" y="480" width="200" height="168" as="geometry" />
        </mxCell>
        <mxCell id="dkPIhI43n5dkKWWPKZW5-81" style="edgeStyle=orthogonalEdgeStyle;rounded=0;orthogonalLoop=1;jettySize=auto;html=1;exitX=0;exitY=0;exitDx=0;exitDy=0;" edge="1" parent="dkPIhI43n5dkKWWPKZW5-80" source="dkPIhI43n5dkKWWPKZW5-70">
          <mxGeometry relative="1" as="geometry">
            <mxPoint x="-140" y="-80" as="targetPoint" />
            <mxPoint x="-10" as="sourcePoint" />
            <Array as="points">
              <mxPoint x="-80" />
              <mxPoint x="-80" y="-80" />
            </Array>
          </mxGeometry>
        </mxCell>
        <mxCell id="dkPIhI43n5dkKWWPKZW5-70" value="&lt;p style=&quot;margin: 4px 0px 0px; text-align: center;&quot;&gt;&lt;b style=&quot;&quot;&gt;Perro&lt;/b&gt;&lt;/p&gt;&lt;hr&gt;&lt;p style=&quot;margin:0px;margin-left:8px;&quot;&gt;-string nombre&amp;nbsp;&lt;br&gt;&lt;br&gt;&lt;br&gt;&lt;/p&gt;" style="verticalAlign=top;align=left;overflow=fill;fontSize=12;fontFamily=Helvetica;html=1;whiteSpace=wrap;" vertex="1" parent="dkPIhI43n5dkKWWPKZW5-80">
          <mxGeometry width="200" height="160" as="geometry" />
        </mxCell>
        <mxCell id="dkPIhI43n5dkKWWPKZW5-71" value="+void comer()" style="text;strokeColor=none;fillColor=none;align=left;verticalAlign=top;spacingLeft=4;spacingRight=4;overflow=hidden;rotatable=0;points=[[0,0.5],[1,0.5]];portConstraint=eastwest;whiteSpace=wrap;html=1;" vertex="1" parent="dkPIhI43n5dkKWWPKZW5-80">
          <mxGeometry y="50" width="190" height="26" as="geometry" />
        </mxCell>
        <mxCell id="dkPIhI43n5dkKWWPKZW5-72" value="+ void jugar (string nombre)" style="text;strokeColor=none;fillColor=none;align=left;verticalAlign=top;spacingLeft=4;spacingRight=4;overflow=hidden;rotatable=0;points=[[0,0.5],[1,0.5]];portConstraint=eastwest;whiteSpace=wrap;html=1;" vertex="1" parent="dkPIhI43n5dkKWWPKZW5-80">
          <mxGeometry y="67" width="190" height="26" as="geometry" />
        </mxCell>
        <mxCell id="dkPIhI43n5dkKWWPKZW5-75" value="" style="shape=partialRectangle;whiteSpace=wrap;html=1;top=0;left=0;fillColor=none;" vertex="1" parent="dkPIhI43n5dkKWWPKZW5-80">
          <mxGeometry y="30" width="200" height="20" as="geometry" />
        </mxCell>
        <mxCell id="dkPIhI43n5dkKWWPKZW5-77" value="+ void caminar(Int patas)" style="text;strokeColor=none;fillColor=none;align=left;verticalAlign=top;spacingLeft=4;spacingRight=4;overflow=hidden;rotatable=0;points=[[0,0.5],[1,0.5]];portConstraint=eastwest;whiteSpace=wrap;html=1;" vertex="1" parent="dkPIhI43n5dkKWWPKZW5-80">
          <mxGeometry y="90" width="190" height="26" as="geometry" />
        </mxCell>
        <mxCell id="dkPIhI43n5dkKWWPKZW5-78" value="+ string getnombre()" style="text;strokeColor=none;fillColor=none;align=left;verticalAlign=top;spacingLeft=4;spacingRight=4;overflow=hidden;rotatable=0;points=[[0,0.5],[1,0.5]];portConstraint=eastwest;whiteSpace=wrap;html=1;" vertex="1" parent="dkPIhI43n5dkKWWPKZW5-80">
          <mxGeometry y="110" width="190" height="26" as="geometry" />
        </mxCell>
        <mxCell id="dkPIhI43n5dkKWWPKZW5-79" value="&lt;span style=&quot;color: rgb(0, 0, 0); font-family: Helvetica; font-size: 12px; font-style: normal; font-variant-ligatures: normal; font-variant-caps: normal; font-weight: 400; letter-spacing: normal; orphans: 2; text-align: left; text-indent: 0px; text-transform: none; widows: 2; word-spacing: 0px; -webkit-text-stroke-width: 0px; background-color: rgb(251, 251, 251); text-decoration-thickness: initial; text-decoration-style: initial; text-decoration-color: initial; float: none; display: inline !important;&quot;&gt;+ void setnonombre(string nombre)&lt;/span&gt;" style="text;whiteSpace=wrap;html=1;" vertex="1" parent="dkPIhI43n5dkKWWPKZW5-80">
          <mxGeometry x="5" y="128" width="195" height="40" as="geometry" />
        </mxCell>
        <mxCell id="dkPIhI43n5dkKWWPKZW5-92" value="" style="group" vertex="1" connectable="0" parent="1">
          <mxGeometry x="510" y="230" width="200" height="194" as="geometry" />
        </mxCell>
        <mxCell id="dkPIhI43n5dkKWWPKZW5-84" value="&lt;p style=&quot;margin: 4px 0px 0px; text-align: center;&quot;&gt;&lt;b&gt;Gato&lt;/b&gt;&lt;/p&gt;&lt;hr&gt;&lt;p style=&quot;margin:0px;margin-left:8px;&quot;&gt;-string nombre&amp;nbsp;&lt;br&gt;&lt;br&gt;&lt;br&gt;&lt;/p&gt;" style="verticalAlign=top;align=left;overflow=fill;fontSize=12;fontFamily=Helvetica;html=1;whiteSpace=wrap;container=0;" vertex="1" parent="dkPIhI43n5dkKWWPKZW5-92">
          <mxGeometry width="200" height="190" as="geometry" />
        </mxCell>
        <mxCell id="dkPIhI43n5dkKWWPKZW5-85" value="+void comer()" style="text;strokeColor=none;fillColor=none;align=left;verticalAlign=top;spacingLeft=4;spacingRight=4;overflow=hidden;rotatable=0;points=[[0,0.5],[1,0.5]];portConstraint=eastwest;whiteSpace=wrap;html=1;container=0;" vertex="1" parent="dkPIhI43n5dkKWWPKZW5-92">
          <mxGeometry y="50" width="190" height="26" as="geometry" />
        </mxCell>
        <mxCell id="dkPIhI43n5dkKWWPKZW5-86" value="+ void jugar (string nombre)" style="text;strokeColor=none;fillColor=none;align=left;verticalAlign=top;spacingLeft=4;spacingRight=4;overflow=hidden;rotatable=0;points=[[0,0.5],[1,0.5]];portConstraint=eastwest;whiteSpace=wrap;html=1;container=0;" vertex="1" parent="dkPIhI43n5dkKWWPKZW5-92">
          <mxGeometry y="74" width="190" height="26" as="geometry" />
        </mxCell>
        <mxCell id="dkPIhI43n5dkKWWPKZW5-87" value="" style="shape=partialRectangle;whiteSpace=wrap;html=1;top=0;left=0;fillColor=none;container=0;" vertex="1" parent="dkPIhI43n5dkKWWPKZW5-92">
          <mxGeometry y="30" width="200" height="20" as="geometry" />
        </mxCell>
        <mxCell id="dkPIhI43n5dkKWWPKZW5-88" value="+ void walk(Int paws)" style="text;strokeColor=none;fillColor=none;align=left;verticalAlign=top;spacingLeft=4;spacingRight=4;overflow=hidden;rotatable=0;points=[[0,0.5],[1,0.5]];portConstraint=eastwest;whiteSpace=wrap;html=1;container=0;" vertex="1" parent="dkPIhI43n5dkKWWPKZW5-92">
          <mxGeometry y="100" width="190" height="26" as="geometry" />
        </mxCell>
        <mxCell id="dkPIhI43n5dkKWWPKZW5-89" value="+ string getnombre()" style="text;strokeColor=none;fillColor=none;align=left;verticalAlign=top;spacingLeft=4;spacingRight=4;overflow=hidden;rotatable=0;points=[[0,0.5],[1,0.5]];portConstraint=eastwest;whiteSpace=wrap;html=1;container=0;" vertex="1" parent="dkPIhI43n5dkKWWPKZW5-92">
          <mxGeometry y="128" width="190" height="26" as="geometry" />
        </mxCell>
        <mxCell id="dkPIhI43n5dkKWWPKZW5-90" value="&lt;span style=&quot;color: rgb(0, 0, 0); font-family: Helvetica; font-size: 12px; font-style: normal; font-variant-ligatures: normal; font-variant-caps: normal; font-weight: 400; letter-spacing: normal; orphans: 2; text-align: left; text-indent: 0px; text-transform: none; widows: 2; word-spacing: 0px; -webkit-text-stroke-width: 0px; background-color: rgb(251, 251, 251); text-decoration-thickness: initial; text-decoration-style: initial; text-decoration-color: initial; float: none; display: inline !important;&quot;&gt;+ void setnonombre(string nombre)&lt;/span&gt;" style="text;whiteSpace=wrap;html=1;container=0;" vertex="1" parent="dkPIhI43n5dkKWWPKZW5-92">
          <mxGeometry x="5" y="128" width="195" height="40" as="geometry" />
        </mxCell>
        <mxCell id="dkPIhI43n5dkKWWPKZW5-91" value="&lt;span style=&quot;color: rgb(0, 0, 0); font-family: Helvetica; font-size: 12px; font-style: normal; font-variant-ligatures: normal; font-variant-caps: normal; font-weight: 400; letter-spacing: normal; orphans: 2; text-align: left; text-indent: 0px; text-transform: none; widows: 2; word-spacing: 0px; -webkit-text-stroke-width: 0px; background-color: rgb(251, 251, 251); text-decoration-thickness: initial; text-decoration-style: initial; text-decoration-color: initial; float: none; display: inline !important;&quot;&gt;+ void setname(string name)&lt;/span&gt;" style="text;whiteSpace=wrap;html=1;container=0;" vertex="1" parent="dkPIhI43n5dkKWWPKZW5-92">
          <mxGeometry x="5" y="154" width="195" height="40" as="geometry" />
        </mxCell>
        <mxCell id="dkPIhI43n5dkKWWPKZW5-93" value="" style="endArrow=block;endSize=16;endFill=0;html=1;rounded=0;" edge="1" parent="1">
          <mxGeometry width="160" relative="1" as="geometry">
            <mxPoint x="510" y="270" as="sourcePoint" />
            <mxPoint x="420" y="270" as="targetPoint" />
            <Array as="points">
              <mxPoint x="510" y="270" />
            </Array>
          </mxGeometry>
        </mxCell>
        <mxCell id="dkPIhI43n5dkKWWPKZW5-107" value="" style="endArrow=block;dashed=1;endFill=0;endSize=12;html=1;rounded=0;" edge="1" parent="1">
          <mxGeometry width="160" relative="1" as="geometry">
            <mxPoint x="770" y="500" as="sourcePoint" />
            <mxPoint x="820" y="500" as="targetPoint" />
          </mxGeometry>
        </mxCell>
        <mxCell id="dkPIhI43n5dkKWWPKZW5-95" value="&lt;p style=&quot;margin: 4px 0px 0px; text-align: center;&quot;&gt;&lt;b&gt;Gato&lt;/b&gt;&lt;/p&gt;&lt;hr&gt;&lt;p style=&quot;margin:0px;margin-left:8px;&quot;&gt;-string nombre&amp;nbsp;&lt;br&gt;&lt;br&gt;&lt;br&gt;&lt;/p&gt;" style="verticalAlign=top;align=left;overflow=fill;fontSize=12;fontFamily=Helvetica;html=1;whiteSpace=wrap;container=0;" vertex="1" parent="1">
          <mxGeometry x="830" y="360" width="200" height="140" as="geometry" />
        </mxCell>
        <mxCell id="dkPIhI43n5dkKWWPKZW5-97" value="+ void setnombre (string nombre)" style="text;strokeColor=none;fillColor=none;align=left;verticalAlign=top;spacingLeft=4;spacingRight=4;overflow=hidden;rotatable=0;points=[[0,0.5],[1,0.5]];portConstraint=eastwest;whiteSpace=wrap;html=1;container=0;" vertex="1" parent="1">
          <mxGeometry x="830" y="434" width="190" height="26" as="geometry" />
        </mxCell>
        <mxCell id="dkPIhI43n5dkKWWPKZW5-98" value="" style="shape=partialRectangle;whiteSpace=wrap;html=1;top=0;left=0;fillColor=none;container=0;" vertex="1" parent="1">
          <mxGeometry x="830" y="390" width="200" height="20" as="geometry" />
        </mxCell>
        <mxCell id="dkPIhI43n5dkKWWPKZW5-108" value="" style="endArrow=block;dashed=1;endFill=0;endSize=12;html=1;rounded=0;exitX=1;exitY=1;exitDx=0;exitDy=0;" edge="1" parent="1" source="dkPIhI43n5dkKWWPKZW5-87">
          <mxGeometry width="160" relative="1" as="geometry">
            <mxPoint x="730" y="280" as="sourcePoint" />
            <mxPoint x="920" y="350" as="targetPoint" />
            <Array as="points">
              <mxPoint x="800" y="280" />
              <mxPoint x="920" y="280" />
            </Array>
          </mxGeometry>
        </mxCell>
        <mxCell id="dkPIhI43n5dkKWWPKZW5-109" value="+ String getnombre ()" style="text;strokeColor=none;fillColor=none;align=left;verticalAlign=top;spacingLeft=4;spacingRight=4;overflow=hidden;rotatable=0;points=[[0,0.5],[1,0.5]];portConstraint=eastwest;whiteSpace=wrap;html=1;container=0;" vertex="1" parent="1">
          <mxGeometry x="830" y="414" width="190" height="26" as="geometry" />
        </mxCell>
        <mxCell id="dkPIhI43n5dkKWWPKZW5-110" value="+ void jugar (string nombre)" style="text;strokeColor=none;fillColor=none;align=left;verticalAlign=top;spacingLeft=4;spacingRight=4;overflow=hidden;rotatable=0;points=[[0,0.5],[1,0.5]];portConstraint=eastwest;whiteSpace=wrap;html=1;container=0;" vertex="1" parent="1">
          <mxGeometry x="830" y="460" width="190" height="26" as="geometry" />
        </mxCell>
        <mxCell id="dkPIhI43n5dkKWWPKZW5-113" value="&lt;font style=&quot;font-size: 24px;&quot;&gt;&lt;u&gt;UML ANIMALES&lt;/u&gt;&lt;/font&gt;" style="html=1;whiteSpace=wrap;dashed=1;strokeWidth=4;" vertex="1" parent="1">
          <mxGeometry x="440" y="110" width="430" height="50" as="geometry" />
        </mxCell>
      </root>
    </mxGraphModel>
  </diagram>
</mxfile>
